<svg xmlns="http://www.w3.org/2000/svg" xmlns:xlink="http://www.w3.org/1999/xlink" version="1.1" x="0px" y="0px" viewBox="0 0 100 125" enable-background="new 0 0 100 100" xml:space="preserve"><path d="M34.8,74.9l-2.1,8.9l6.9-4.9l-0.9-3.9l2.9-3.4c0.1-0.1,0.1-0.3,0.1-0.4l-1.9-4.3c-0.1-0.1-0.2-0.2-0.3-0.2H34  c-0.1,0-0.3,0.1-0.3,0.2l-1.8,4.3c-0.1,0.1,0,0.3,0.1,0.4L34.8,74.9z"/><path d="M36.8,19.8c-11,0-19.9,8.9-19.9,19.9c0,11,8.9,19.9,19.9,19.9c11,0,19.9-8.9,19.9-19.9C56.7,28.7,47.8,19.8,36.8,19.8z   M36.8,55.1c-8.5,0-15.5-6.9-15.5-15.5c0-1.3,0.2-2.6,0.5-3.8c1.8,0.9,5.1,2.2,8.8,2.2c2.7,0,5.6-0.7,8.4-2.6  c0.3-0.2,7.1-5.1,12.5-0.2c0.4,1.4,0.7,2.9,0.7,4.4C52.2,48.2,45.3,55.1,36.8,55.1z"/><polygon points="43,92.9 42,88.7 36,92.9 "/><polygon points="31.9,92.9 41.4,86.2 40.2,81.4 31.9,87.3 30.5,92.9 "/><path d="M72.5,92.9v-9c0-9.6-7.7-17.3-17.3-17.3h-0.5l-8,26.3H72.5z"/><path d="M26.7,92.9l-7.6-26.3h-0.7C8.7,66.6,1,74.3,1,83.9v9H26.7z"/><path d="M97.6,23.3C95,13.1,84.5,7,74.3,9.7C64.1,12.4,58,22.8,60.7,33c1.3,4.8,4.3,8.7,8.2,11.2l-5,7.7L84,46.6  C94.2,44,100.3,33.5,97.6,23.3z M89.7,28.5c0,5.8-4.7,10.4-10.4,10.4c-5.8,0-10.4-4.7-10.4-10.4S73.5,18,79.3,18h0.6v9.8h9.8V28.5z   M91.9,25.4h-9.5v-9.5H83c4.9,0,8.9,4,8.9,8.9V25.4z"/><text x="0" y="115" fill="#000000" font-size="5px" font-weight="bold" font-family="'Helvetica Neue', Helvetica, Arial-Unicode, Arial, Sans-serif">Created by Aneeque Ahmed</text><text x="0" y="120" fill="#000000" font-size="5px" font-weight="bold" font-family="'Helvetica Neue', Helvetica, Arial-Unicode, Arial, Sans-serif">from the Noun Project</text></svg>