<svg version="1.1" id="Consulenza" xmlns="http://www.w3.org/2000/svg" xmlns:xlink="http://www.w3.org/1999/xlink" x="0px" y="0px"
	 viewBox="0 0 35.5 35.5" enable-background="new 0 0 35.5 35.5" xml:space="preserve">
<path fill="#88878A" d="M33,1.5c1.3,0,2.4,1.1,2.4,2.4v16.6c0,1.3-1.1,2.4-2.4,2.4h-0.5v-1.4H33c0.6,0,1-0.5,1-1V3.9
	c0-0.6-0.5-1-1-1H7.1c-0.6,0-1,0.5-1,1v0.5H4.6V3.9c0-1.3,1.1-2.4,2.4-2.4H33 M28.4,7.5c0.6,0,1,0.5,1,1v16.6c0,0.6-0.5,1-1,1H13.5
	c-0.7,0-1.5,0.3-2,0.8l-5.4,5.5c0,0,0,0,0,0v0.7l0-5.5c0-0.9-0.7-1.6-1.6-1.6H2.4c-0.6,0-1-0.5-1-1V8.6c0-0.6,0.5-1,1-1H28.4z
	 M6.2,33.9c0.4,0,0.7-0.2,1-0.4l5.3-5.5c0.3-0.3,0.6-0.4,1-0.4h14.9c1.3,0,2.4-1.1,2.4-2.4V8.6c0-1.3-1.1-2.4-2.4-2.4H2.4
	C1.1,6.1,0,7.2,0,8.6v16.6c0,1.3,1.1,2.4,2.4,2.4h2.2c0.1,0,0.2,0.1,0.2,0.2v4.8c0,0.4,0.2,0.8,0.4,1C5.5,33.8,5.8,33.9,6.2,33.9"/>
<path fill="#836B4E" d="M23.1,13.8H7.7c-0.4,0-0.7-0.3-0.7-0.7s0.3-0.7,0.7-0.7h15.3c0.4,0,0.7,0.3,0.7,0.7S23.5,13.8,23.1,13.8
	 M23.1,17.8c0.4,0,0.7-0.3,0.7-0.7s-0.3-0.7-0.7-0.7H7.7c-0.4,0-0.7,0.3-0.7,0.7s0.3,0.7,0.7,0.7H23.1 M15.4,21.8
	c0.4,0,0.7-0.3,0.7-0.7s-0.3-0.7-0.7-0.7H7.7c-0.4,0-0.7,0.3-0.7,0.7s0.3,0.7,0.7,0.7H15.4"/>
</svg>
