<svg version="1.1" id="Investimenti" xmlns="http://www.w3.org/2000/svg" xmlns:xlink="http://www.w3.org/1999/xlink" x="0px" y="0px"
	 viewBox="0 0 41.7 41.7" enable-background="new 0 0 41.7 41.7" xml:space="preserve">
<path fill="#88878A" d="M9.4,37.8c-0.4,0-0.7-0.3-0.7-0.7V19.9H4.9v17.2c0,0.4-0.3,0.7-0.7,0.7s-0.7-0.3-0.7-0.7V19.6
	c0-0.6,0.5-1,1-1h4.5c0.6,0,1,0.5,1,1v17.5C10.1,37.5,9.8,37.8,9.4,37.8 M18.5,37.8c0.4,0,0.7-0.3,0.7-0.7V24c0-0.6-0.5-1-1-1h-4.5
	c-0.6,0-1,0.5-1,1v13c0,0.4,0.3,0.7,0.7,0.7s0.7-0.3,0.7-0.7V24.4h3.8v12.7C17.8,37.5,18.2,37.8,18.5,37.8 M27.7,37.8
	c0.4,0,0.7-0.3,0.7-0.7V15c0-0.6-0.5-1-1-1h-4.5c-0.6,0-1,0.5-1,1v22.1c0,0.4,0.3,0.7,0.7,0.7s0.7-0.3,0.7-0.7V15.3H27v21.8
	C27,37.5,27.3,37.8,27.7,37.8 M36.8,37.8c0.4,0,0.7-0.3,0.7-0.7V8.9c0-0.6-0.5-1-1-1H32c-0.6,0-1,0.5-1,1v28.2
	c0,0.4,0.3,0.7,0.7,0.7c0.4,0,0.7-0.3,0.7-0.7V9.3h3.8v27.8C36.1,37.5,36.4,37.8,36.8,37.8 M36.8,41.7c0.4,0,0.7-0.3,0.7-0.7
	s-0.3-0.7-0.7-0.7H4.2c-0.4,0-0.7,0.3-0.7,0.7s0.3,0.7,0.7,0.7H36.8"/>
<path fill="none" stroke="#836B4E" stroke-width="1.394" stroke-miterlimit="10" d="M34.6,0.7l3.5,0l0,3.4 M2.9,13.9
	c0,0,18.9,0.9,33.8-11.9"/>
</svg>
