<svg version="1.1" id="Quotazioni" xmlns="http://www.w3.org/2000/svg" xmlns:xlink="http://www.w3.org/1999/xlink" x="0px" y="0px"
	 viewBox="0 0 209.8 60.7" enable-background="new 0 0 209.8 60.7" xml:space="preserve">
<path fill="none" stroke="#87878A" stroke-width="3.825" d="M1.4,57.8l33.3-36.3l31.8,36.3l34.7-38.2l23.1,19.6l20.2-30.8l20.2,12.3
	l38.4-14"/>
<path fill="#87878A" d="M144.7,11c-2.8,0-5.1-2.3-5.1-5.1s2.3-5.1,5.1-5.1c2.8,0,5.1,2.3,5.1,5.1S147.5,11,144.7,11 M204.7,11.4
	c2.8,0,5.1-2.3,5.1-5.1s-2.3-5.1-5.1-5.1c-2.8,0-5.1,2.3-5.1,5.1S201.9,11.4,204.7,11.4 M101.5,22.8c2.8,0,5.1-2.3,5.1-5.1
	s-2.3-5.1-5.1-5.1c-2.8,0-5.1,2.3-5.1,5.1S98.7,22.8,101.5,22.8 M34.9,25.1c2.8,0,5.1-2.3,5.1-5.1s-2.3-5.1-5.1-5.1
	c-2.8,0-5.1,2.3-5.1,5.1S32.1,25.1,34.9,25.1"/>
</svg>
