<svg version="1.1" id="Recupero" xmlns="http://www.w3.org/2000/svg" xmlns:xlink="http://www.w3.org/1999/xlink" x="0px" y="0px"
	 viewBox="0 0 35.2 35.2" enable-background="new 0 0 35.2 35.2" xml:space="preserve">
<path fill="#88878A" d="M5.8,33.8h23.6v-31H5.8V33.8z M30.1,35.2h-25c-0.4,0-0.7-0.3-0.7-0.7V2.1c0-0.4,0.3-0.7,0.7-0.7h25
	c0.4,0,0.7,0.3,0.7,0.7v32.4C30.8,34.9,30.5,35.2,30.1,35.2 M14.4,5.3c-0.4,0-0.7-0.2-0.7-0.5V0.5C13.7,0.2,14,0,14.4,0
	c0.4,0,0.7,0.2,0.7,0.6v4.2C15.1,5.1,14.8,5.3,14.4,5.3 M17.6,5.3c-0.4,0-0.7-0.2-0.7-0.5V0.5c0-0.3,0.3-0.6,0.7-0.6
	c0.4,0,0.7,0.2,0.7,0.6v4.2C18.3,5.1,18,5.3,17.6,5.3 M20.8,5.3c-0.4,0-0.7-0.2-0.7-0.5V0.5c0-0.3,0.3-0.6,0.7-0.6
	c0.4,0,0.7,0.2,0.7,0.6v4.2C21.5,5.1,21.2,5.3,20.8,5.3 M24.9,23.8H10.9c-0.4,0-0.7-0.3-0.7-0.7s0.3-0.7,0.7-0.7h14.1
	c0.4,0,0.7,0.3,0.7,0.7S25.3,23.8,24.9,23.8 M24.9,27.4H10.9c-0.4,0-0.7-0.3-0.7-0.7s0.3-0.7,0.7-0.7h14.1c0.4,0,0.7,0.3,0.7,0.7
	S25.3,27.4,24.9,27.4 M21.2,30.9H11c-0.5,0-0.8-0.3-0.8-0.7c0-0.4,0.4-0.7,0.8-0.7h10.2c0.5,0,0.8,0.3,0.8,0.7
	C22,30.6,21.7,30.9,21.2,30.9"/>
<path fill="#836B4E" d="M23.1,15C23.2,15,23.2,15.1,23.1,15c-0.7,2.5-2.9,4.3-5.5,4.3c-3,0-5.5-2.3-5.8-5.2l-1.1,0.3
	c-0.1,0-0.1-0.1-0.1-0.1l1.6-2.2c0,0,0.1,0,0.1,0l1.6,2.2c0,0,0,0.1-0.1,0.1l-1-0.3c0.3,2.4,2.3,4.2,4.7,4.2c2.2,0,4-1.5,4.6-3.5
	c0,0,0.1-0.1,0.1,0L23.1,15 M24.5,11.7L23.3,12c-0.5-2.7-2.9-4.7-5.7-4.7c-2.4,0-4.5,1.5-5.4,3.7c0,0,0,0.1,0,0.1l0.8,0.3
	c0,0,0.1,0,0.1,0c0.7-1.7,2.4-3,4.4-3c2.2,0,4.1,1.5,4.6,3.5l-0.9-0.2c-0.1,0-0.1,0.1-0.1,0.1l1.6,2.2c0,0,0.1,0,0.1,0l1.6-2.2
	C24.6,11.7,24.6,11.7,24.5,11.7"/>
<path fill="none" stroke="#836B4E" stroke-width="0.348" stroke-miterlimit="10" d="M23.2,15.1c-0.7,2.4-2.9,4.2-5.6,4.2
	c-3,0-5.5-2.3-5.8-5.2l-1.1,0.3c-0.1,0-0.1-0.1-0.1-0.1l1.6-2.2c0,0,0.1,0,0.1,0l1.6,2.2c0,0,0,0.1-0.1,0.1l-1-0.3
	c0.3,2.4,2.3,4.2,4.7,4.2c2.2,0,4-1.5,4.6-3.5c0,0,0.1-0.1,0.1,0L23.2,15.1C23.2,15,23.2,15.1,23.2,15.1z M24.5,11.7L23.3,12
	c-0.5-2.7-2.9-4.7-5.7-4.7c-2.4,0-4.5,1.5-5.4,3.7c0,0,0,0.1,0,0.1l0.8,0.3c0,0,0.1,0,0.1,0c0.7-1.7,2.4-3,4.4-3
	c2.2,0,4.1,1.5,4.6,3.5l-0.9-0.2c-0.1,0-0.1,0.1-0.1,0.1l1.6,2.2c0,0,0.1,0,0.1,0l1.6-2.2C24.6,11.7,24.6,11.7,24.5,11.7z"/>
</svg>
