<?xml version="1.0" encoding="utf-8"?>
<!-- Generator: Adobe Illustrator 19.1.0, SVG Export Plug-In . SVG Version: 6.00 Build 0)  -->
<svg version="1.1" id="Layer_1" xmlns="http://www.w3.org/2000/svg" xmlns:xlink="http://www.w3.org/1999/xlink" x="0px" y="0px"
	 viewBox="0 0 119.3 115.3" enable-background="new 0 0 119.3 115.3" xml:space="preserve">
<path fill="none" stroke="#87878A" stroke-width="3.976" d="M50.9,53.6l-25.8-9.1 M42.2,90.8l15.3-20.4 M76.1,47.2l18.6-22
	 M79.8,65.5l20.8,0.5 M33.3,88.5c-6.9,0-12.4,5.6-12.4,12.4c0,6.9,5.6,12.4,12.4,12.4s12.4-5.6,12.4-12.4
	C45.7,94,40.1,88.5,33.3,88.5z M10.1,28.5c-6.4,2.3-9.7,9.4-7.4,15.8c2.3,6.4,9.4,9.7,15.8,7.4c6.4-2.3,9.7-9.4,7.4-15.8
	C23.5,29.5,16.5,26.2,10.1,28.5z M98.2,2.3c-6.7,1.4-11,8-9.5,14.7c1.4,6.7,8,11,14.7,9.5c6.7-1.4,11-8,9.5-14.7
	C111.4,5.1,104.8,0.8,98.2,2.3z M106.7,58c-4.7,1.1-7.6,5.7-6.5,10.4c1.1,4.7,5.7,7.6,10.4,6.5c4.7-1.1,7.6-5.7,6.5-10.4
	C116,59.8,111.3,56.9,106.7,58z"/>
<path fill="none" stroke="#836A4D" stroke-width="3.976" stroke-miterlimit="10" d="M81.3,59.5c0,8.4-6.8,15.2-15.2,15.2
	s-15.2-6.8-15.2-15.2s6.8-15.2,15.2-15.2S81.3,51.1,81.3,59.5z"/>
</svg>
