<svg version="1.1" id="Layer_1" xmlns="http://www.w3.org/2000/svg" xmlns:xlink="http://www.w3.org/1999/xlink" x="0px" y="0px"
	 viewBox="-258 344 94.2 105" enable-background="new -258 344 94.2 105" xml:space="preserve">
<path fill="none" stroke="#878789" stroke-width="3" d="M-246.2,353.2c0,0,1.7-2.3,2.6-1.7c1,0.7,1,3.3,1.7,4.6c0.7,1.3,1.7-1,2.6-2
	c1-1,1.3-3.6,2.6-2.6s2,1.7,3,1.3c1-0.3,0.7-2,2.6-1.7c2,0.3,1.7-3.3,2-4.3c0.3-1,1,1.7,2,3c1,1.3,0-1.7,2.3-2
	c2.3-0.3,1.3-1.7,3.6-1.7s3.6-1,4.3,0.3c0.7,1.3,3,2,3.3,2.6c0.3,0.7,5.3,0.3,4,0.7c-1.3,0.3,2,1,4,1.3s0.7,1.7,0,3
	c-0.7,1.3,2,2.3,3,3.3s0.3,2,0,3.3c-0.3,1.3-1.7-1-3.6-2c-2-1-3.3,0-5.3,1s-3.6,1-3,3c0.7,2,1.7,3.3,1,4c-0.7,0.7-1.3,2-1,4.3
	c0.3,2.3,6.3,3.6,8.3,5.3c2,1.7,4,6.6,4.3,7.3c0.3,0.7,4.3,6.6,4.3,6.6s7,2.3,7.6,2.6c0.7,0.3,6.3,1,7,1.3s-2.7,1.7-2.3,3.3
	c0.3,1.7,4.3,2.3,7,3.6s6.6,3.3,8.6,3.6c2,0.3,3.6,2.6,4,4.3c0.3,1.7-0.7,3.6-2,4.3c-1.3,0.7-2.3-2-3.3-4.3c-1-2.3-1.3-0.3-3.3-1.3
	s-2.6-0.7-4.3,1c-1.7,1.7-0.3,3,1,5.3c1.3,2.3,3.3,2,3.6,3.6c0.3,1.7-1.7,2.3-3.3,4.3c-1.7,2-1.7,3.6-3,5c-1.3,1.3-3.3,4-5,4
	s-1-1-1-2.6s1.7-2.3,2.3-4.6c0.7-2.3,1-2.3,0.3-5c-0.7-2.6-1-3-2-5.3c-1-2.3-1.7-2.6-3-2.3c-1.3,0.3-2.3-0.3-4.3-2.3s-0.7-2-2.6-2.6
	c-2-0.7-3-0.7-4-2s-1.7-3-3.3-4c-1.7-1-5.3-0.7-9.6-4s-7-5.6-8.9-6.6c-2-1-3.3-2-5.3-5s-2-4.3-3.3-8.6c-1.3-4.3-3.3-2-6.3-3.3
	s-4.3-1.3-6.6,0.3c-2.3,1.7-4,4.3-6.3,4.3s-0.7-2-3.6-3.6c-3-1.7-1.7-1.7-1.7-5.3c0-3.6-1.7-1.7-1.7-3.6s1.3-0.3,2-2.3
	s-1.7-3-1.7-4.6c0-1.7,2.6-1,6-1.3L-246.2,353.2z M-244.4,403.6c0,0-1.5,0.3-1.8,1.3s-0.9,1.6,0,2.9c0.9,1.3,1.5,1.6,1.8,3.8
	c0.3,2.2,0.6,3.5,0.6,5.7c0,2.2-0.6,3.8-0.3,4.5c0.3,0.6,0.9,1.6,2.5,2.2c1.5,0.6,2.2-1,3.1-2.2c0.9-1.3,1.5-0.3,2.5-0.6
	c0.9-0.3,1.2-3.5,1.5-6.1s-0.9-3.2,0-4.8c0.9-1.6,0.9-1.9-0.3-4.8s-1.2-4.5-2.5-4.2c-1.3,0.3-1.2,1-2.8,1.9
	c-1.6,0.9-2.8,2.6-3.4,2.2C-244.1,405.2-244.4,403.6-244.4,403.6z M-234.1,390.6c0,0.4,1.2-0.7,1.7-0.2c0.5,0.4,1,0,1.5-0.4
	s-0.5-0.4-1.2-1.1c-0.7-0.7-2.9-1.1-2.8-0.7S-234.1,390.1-234.1,390.6z M-213.7,433.3c-0.6,0.9-1.3,0.6-0.3,2.5
	c1,1.9,0.3,2.8,1.9,3.1c1.6,0.3,2.2,0,3.8,0.6c1.6,0.6,5.1,3.1,6.4,3.4c1.3,0.3,1.6-0.6,2.9,0.9c1.3,1.6,2.9,1.6,3.5,1.9
	c0.6,0.3,1.9,2.2,2.6,0.9c0.6-1.2,1.6-1.6,1.6-3.4c0-1.9-1.3-1.9-1.3-4c0-2.2,1-3.7,1.3-4.7c0.3-0.9,0.3-1.9,0.3-1.9l-5.4,0.6
	c0,0-2.6,1.2-4.2,0.9c-1.6-0.3-3.2-0.3-4.5-0.9c-1.3-0.6-4.2-0.3-4.2-0.3h-2.2C-211.5,432.9-213.1,432.4-213.7,433.3z"/>
</svg>
