<svg version="1.1" id="Valutazione" xmlns="http://www.w3.org/2000/svg" xmlns:xlink="http://www.w3.org/1999/xlink" x="0px" y="0px"
	 viewBox="0 0 34.9 34.9" enable-background="new 0 0 34.9 34.9" xml:space="preserve">
<path fill="#88878A" d="M4,31.5l2.6,2c0.1,0,0.2-0.1,0.3-0.2l7.1-9.7L11.7,22c0,0-0.1,0-0.1,0l-7.6,9.2C4,31.3,4,31.4,4,31.5
	 M6.8,34.9L6.8,34.9c-0.4,0.1-0.8,0-1.1-0.3l-2.6-2c-0.3-0.3-0.5-0.7-0.5-1.2c0-0.4,0.1-0.8,0.4-1.2l7.6-9.2c0.5-0.6,1.4-0.7,2-0.3
	l2.2,1.5c0.3,0.2,0.5,0.6,0.6,0.9c0.1,0.4,0,0.8-0.3,1.1L8,34.1C7.7,34.5,7.2,34.8,6.8,34.9"/>
<path fill="none" stroke="#88878A" stroke-width="1.331" stroke-miterlimit="10" d="M27.7,12.5c0,4.4-3.5,7.9-7.9,7.9
	c-4.4,0-7.9-3.5-7.9-7.9c0-4.4,3.5-7.9,7.9-7.9C24.2,4.6,27.7,8.2,27.7,12.5z M19.8,0.9c-6.4,0-11.6,5.2-11.6,11.6
	c0,6.4,5.2,11.6,11.6,11.6s11.6-5.2,11.6-11.6C31.5,6.1,26.3,0.9,19.8,0.9z"/>
<path fill="none" stroke="#836B4E" stroke-width="1.742" stroke-miterlimit="10" d="M23,12.5h-6.3 M19.8,9.2v6.6"/>
</svg>
