<svg version="1.1" id="Aurec-logo" xmlns="http://www.w3.org/2000/svg" xmlns:xlink="http://www.w3.org/1999/xlink" x="0px" y="0px"
	 viewBox="0 0 58.7 38.8" enable-background="new 0 0 58.7 38.8" xml:space="preserve">
<path class="Thin" display="none" fill="#010101" d="M24.6,21.5L24.6,21.5v0.1v0.1h-0.2v-0.1v0v-0.1H24.6z M11.5,13.2l3.8,8.5l0,0.1
	h0.3l-0.1-0.2l-3.9-8.8c0-0.1-0.2-0.1-0.2,0l-3.9,8.8l-0.1,0.2h0.3l0-0.1L11.5,13.2z M16.8,18.9c0,1.6,1.4,2.9,3.2,2.9
	c1.8,0,3.2-1.3,3.2-2.9l0-6l0-0.1h-0.3v0.1v6.1c0,1.4-1.3,2.6-2.9,2.6c-1.6,0-2.9-1.2-2.9-2.6l0-6l0-0.1h-0.3v0.1V18.9z"/>
<path class="Bold" fill="#010101" d="M25.1,22.1h-1.1V21h1.1V22.1z M16,21.6l-4-9c-0.1-0.2-0.2-0.3-0.4-0.3L11.5,12l-0.1,0.3
	c-0.2,0-0.4,0.2-0.4,0.3L7,21.4l-0.4,0.8H8l0.1-0.3l3.3-7.6l3.3,7.5l0.1,0.4h1.3L16,21.6z M20,22.2c2,0,3.7-1.5,3.7-3.4l0-6l0.1-0.6
	h-1.3v6.7c0,1.2-1.1,2.1-2.5,2.1c-1.4,0-2.5-1-2.5-2.1l0-6l0.1-0.6h-1.3v6.7C16.3,20.7,18,22.2,20,22.2"/>
<path class="Rec" fill="#010101" d="M30.9,17.1L30.9,17.1l0.5,0c1.4,0,2.5-1,2.5-2.2c0-1.2-1.1-2.2-2.5-2.2h-3.9v4.4L30.9,17.1z
	 M31.7,17.4c0.8,0.6,1.4,1.5,2.4,4.5l0.1,0.2h-0.3l0-0.1c-1-3.2-1.6-3.9-2.6-4.5h-3.9v4.5V22h-0.3v-0.1l0-4.5l0,0l0-0.1l0-4.6
	c0-0.1,0.1-0.1,0.1-0.1l4.1,0c1.5,0,2.8,1.1,2.8,2.5C34.1,16.2,33.1,17.2,31.7,17.4 M43,12.5h0.1v0.3H43h-6.3v4.3h4.6h0.1v0.3h-0.1
	h-4.6v4.3H43h0.1V22H43h-6.4c-0.1,0-0.1-0.1-0.1-0.1v-4.5v-0.3v-4.5c0-0.1,0.1-0.1,0.1-0.1H43z M52.1,19.8L52.1,19.8l0.4-0.1
	L52.3,20c-0.6,1-2,2-3.6,2c-2.3,0-4.2-2.1-4.2-4.8c0-2.7,1.9-4.8,4.2-4.8c1.6,0,3.1,1,3.6,2l0.1,0.2h-0.3l0-0.1
	c-0.5-1-1.9-1.9-3.3-1.9c-2.2,0-3.9,2-3.9,4.5c0,2.5,1.8,4.5,3.9,4.5C50.2,21.7,51.6,20.8,52.1,19.8"/>
<path class="claim" fill="#010101" d="M12.8,26.4c0-0.2-0.1-0.3-0.3-0.3h-0.4c0,0,0,0,0,0v0.6c0,0,0,0,0,0h0.4
	C12.7,26.7,12.8,26.5,12.8,26.4 M11.8,27.7C11.8,27.7,11.8,27.7,11.8,27.7l0-1.9c0,0,0,0,0,0h0.7c0.4,0,0.6,0.2,0.6,0.6
	c0,0.4-0.3,0.6-0.6,0.6h-0.4c0,0,0,0,0,0v0.7c0,0,0,0,0,0H11.8z M15.4,26.3c0-0.2-0.1-0.3-0.3-0.3h-0.4c0,0,0,0,0,0v0.5c0,0,0,0,0,0
	h0.4C15.3,26.6,15.4,26.5,15.4,26.3 M15.4,27.7C15.4,27.7,15.4,27.7,15.4,27.7L15,26.9h-0.3c0,0,0,0,0,0v0.7c0,0,0,0,0,0h-0.3
	c0,0,0,0,0,0v-1.9c0,0,0,0,0,0h0.7c0.4,0,0.6,0.2,0.6,0.6c0,0.3-0.1,0.4-0.4,0.5l0.4,0.8c0,0,0,0,0,0H15.4z M17,25.8
	C17,25.8,17,25.8,17,25.8l1.2,0c0,0,0,0,0,0V26c0,0,0,0,0,0h-0.9c0,0,0,0,0,0v0.5c0,0,0,0,0,0h0.7c0,0,0,0,0,0v0.2c0,0,0,0,0,0h-0.7
	c0,0,0,0,0,0v0.5c0,0,0,0,0,0h0.9c0,0,0,0,0,0v0.2c0,0,0,0,0,0H17c0,0,0,0,0,0V25.8z M19.5,26.7c0-0.3,0-0.4,0.1-0.5
	c0.1-0.3,0.3-0.5,0.7-0.5c0.3,0,0.5,0.2,0.6,0.4c0,0,0,0,0,0l-0.2,0.1c0,0,0,0,0,0c-0.1-0.1-0.2-0.2-0.4-0.2c-0.2,0-0.3,0.1-0.3,0.3
	c0,0.1,0,0.2,0,0.4c0,0.3,0,0.4,0,0.4c0.1,0.2,0.2,0.3,0.3,0.3c0.2,0,0.3-0.1,0.4-0.2c0,0,0,0,0,0l0.2,0.1c0,0,0,0,0,0
	c-0.1,0.3-0.3,0.4-0.6,0.4c-0.3,0-0.6-0.2-0.7-0.5C19.5,27.1,19.5,27,19.5,26.7 M22,25.8C22,25.8,22,25.8,22,25.8l0.3,0c0,0,0,0,0,0
	v1.9c0,0,0,0,0,0h-0.3c0,0,0,0,0,0V25.8z M24.7,27.2c0-0.1,0-0.2,0-0.4c0-0.3,0-0.4,0-0.4c-0.1-0.2-0.2-0.3-0.4-0.3
	c-0.2,0-0.3,0.1-0.4,0.3c0,0.1,0,0.2,0,0.4c0,0.3,0,0.4,0,0.4c0.1,0.2,0.2,0.3,0.4,0.3C24.6,27.4,24.7,27.3,24.7,27.2 M23.7,27.3
	c0-0.1-0.1-0.2-0.1-0.5s0-0.4,0.1-0.5c0.1-0.3,0.3-0.5,0.7-0.5c0.3,0,0.6,0.2,0.7,0.5c0,0.1,0.1,0.2,0.1,0.5s0,0.4-0.1,0.5
	c-0.1,0.3-0.3,0.5-0.7,0.5C24,27.7,23.8,27.6,23.7,27.3 M27.4,27v-1.2c0,0,0,0,0,0h0.3c0,0,0,0,0,0V27c0,0.4-0.3,0.7-0.7,0.7
	c-0.4,0-0.7-0.3-0.7-0.7v-1.2c0,0,0,0,0,0h0.3c0,0,0,0,0,0V27c0,0.3,0.2,0.4,0.4,0.4C27.3,27.4,27.4,27.3,27.4,27 M29,27.5
	C29,27.5,29,27.4,29,27.5l0.2-0.2c0,0,0,0,0,0c0.1,0.1,0.3,0.2,0.5,0.2c0.2,0,0.4-0.1,0.4-0.3c0-0.1-0.1-0.2-0.4-0.3l-0.1,0
	c-0.4-0.1-0.6-0.2-0.6-0.5c0-0.3,0.3-0.6,0.6-0.6c0.2,0,0.5,0.1,0.6,0.2c0,0,0,0,0,0l-0.1,0.2c0,0,0,0,0,0C30,26.1,29.8,26,29.7,26
	c-0.2,0-0.3,0.1-0.3,0.3c0,0.1,0.1,0.2,0.4,0.3l0.1,0c0.4,0.1,0.6,0.2,0.6,0.6c0,0.3-0.2,0.6-0.7,0.6C29.4,27.7,29.1,27.6,29,27.5
	 M33.2,25.8C33.2,25.8,33.2,25.8,33.2,25.8l0.3,0c0,0,0,0,0,0l0.5,1.2h0l0.5-1.2c0,0,0,0,0,0h0.2c0,0,0,0,0,0v1.9c0,0,0,0,0,0h-0.2
	c0,0,0,0,0,0v-1.2h0l-0.4,0.9c0,0,0,0-0.1,0H34c0,0,0,0-0.1,0l-0.4-0.9h0v1.2c0,0,0,0,0,0h-0.2c0,0,0,0,0,0V25.8z M36.3,25.8
	C36.3,25.8,36.3,25.8,36.3,25.8l1.2,0c0,0,0,0,0,0V26c0,0,0,0,0,0h-0.9c0,0,0,0,0,0v0.5c0,0,0,0,0,0h0.7c0,0,0,0,0,0v0.2
	c0,0,0,0,0,0h-0.7c0,0,0,0,0,0v0.5c0,0,0,0,0,0h0.9c0,0,0,0,0,0v0.2c0,0,0,0,0,0h-1.2c0,0,0,0,0,0V25.8z M39.2,27.7
	C39.2,27.7,39.2,27.7,39.2,27.7l0-1.6c0,0,0,0,0,0h-0.5c0,0,0,0,0,0v-0.2c0,0,0,0,0,0H40c0,0,0,0,0,0V26c0,0,0,0,0,0h-0.5
	c0,0,0,0,0,0v1.6c0,0,0,0,0,0H39.2z M42,27l-0.3-0.7h0L41.5,27H42z M41.5,25.8C41.6,25.8,41.6,25.8,41.5,25.8l0.3,0c0,0,0,0,0,0
	l0.6,1.9c0,0,0,0,0,0h-0.3c0,0,0,0,0,0l-0.1-0.4h-0.7l-0.1,0.4c0,0,0,0,0,0h-0.3c0,0,0,0,0,0L41.5,25.8z M43.7,25.8
	C43.7,25.8,43.7,25.8,43.7,25.8l0.3,0c0,0,0,0,0,0v1.6c0,0,0,0,0,0h0.9c0,0,0,0,0,0v0.2c0,0,0,0,0,0h-1.2c0,0,0,0,0,0V25.8z
	 M46,27.5C46,27.5,46,27.4,46,27.5l0.2-0.2c0,0,0,0,0,0c0.1,0.1,0.3,0.2,0.5,0.2c0.2,0,0.4-0.1,0.4-0.3c0-0.1-0.1-0.2-0.4-0.3
	l-0.1,0c-0.4-0.1-0.6-0.2-0.6-0.5c0-0.3,0.3-0.6,0.6-0.6c0.2,0,0.5,0.1,0.6,0.2c0,0,0,0,0,0l-0.1,0.2c0,0,0,0,0,0
	C47,26.1,46.9,26,46.7,26c-0.2,0-0.3,0.1-0.3,0.3c0,0.1,0.1,0.2,0.4,0.3l0.1,0c0.4,0.1,0.6,0.2,0.6,0.6c0,0.3-0.2,0.6-0.7,0.6
	C46.5,27.7,46.2,27.6,46,27.5"/>
<path class="bg" fill="#010101" d="M6.5,26.1h4.1v0.7H6.5V26.1z M48.6,26.8h4.1v-0.7h-4.1V26.8z M29.3,0.2c0.8,0,1.7,0.1,2.5,0.4
	c3,1,22.6,8.3,22.8,8.4c0,0,3.7,1.2,3.9,3.5v14.3c-0.1,0.2-0.7,2.5-4,3.6C50.9,31.6,32,38,31.8,38.1c0,0-0.8,0.4-2.2,0.4
	c-0.9,0-1.9-0.2-2.8-0.5C23.5,36.9,4.2,30.5,4,30.5c0,0-3.7-1-3.7-3.6V12.5c0,0,0-2.2,3.6-3.4c3.7-1.2,22.6-8.3,22.8-8.4
	C26.7,0.8,27.7,0.2,29.3,0.2 M29.6,38.8c1.5,0,2.3-0.5,2.3-0.5c0.2-0.1,19.1-6.5,22.6-7.7c3.5-1.2,4.2-3.7,4.2-3.8l0,0V12.5
	c-0.1-2.5-3.9-3.7-4-3.7c-0.2-0.1-19.7-7.4-22.8-8.4C31.1,0.1,30.2,0,29.3,0c-1.7,0-2.7,0.5-2.7,0.5C26.4,0.6,7.5,7.7,3.8,8.9
	C0,10.2,0,12.4,0,12.5v14.3c0,2.7,3.8,3.8,3.9,3.8c0.2,0.1,19.5,6.5,22.8,7.6C27.7,38.6,28.7,38.8,29.6,38.8 M29.4,2.3
	c0.8,0,1.6,0.1,2.3,0.4c2.9,0.9,21.5,7.6,21.7,7.7c0,0,3.4,1,3.5,3v13c-0.1,0.3-0.8,2.1-3.7,3.1c-3.3,1.1-21.4,7-21.6,7l-0.1,0
	c0,0-0.7,0.4-2,0.4c-0.8,0-1.7-0.2-2.6-0.5c-3.1-1-21.6-6.9-21.8-6.9c0,0-3.4-0.9-3.4-3V13.3c0-0.1,0-1.8,3.3-2.9
	c3.6-1.1,21.6-7.6,21.8-7.7l0,0C27,2.8,27.9,2.3,29.4,2.3 M29.6,37.5c1.3,0,2.2-0.4,2.3-0.4c0.8-0.3,18.3-5.9,21.5-7
	c3.5-1.2,4.1-3.5,4.2-3.6l0,0l0-13.1c-0.1-2.4-3.9-3.6-4-3.6C53.5,9.6,34.8,2.9,31.9,2c-0.8-0.3-1.7-0.4-2.6-0.4
	c-1.5,0-2.5,0.4-2.7,0.5C26,2.3,8.4,8.7,4.9,9.8c-3.8,1.2-3.8,3.4-3.8,3.5v13.1c0,2.7,3.8,3.7,3.9,3.7C5.2,30.2,23.6,36,26.7,37
	C27.7,37.4,28.7,37.5,29.6,37.5"/>
</svg>
