<svg version="1.1" id="Aurec-logo-2" xmlns="http://www.w3.org/2000/svg" xmlns:xlink="http://www.w3.org/1999/xlink" x="0px" y="0px"
	 viewBox="0 0 134.6 89.6" enable-background="new 0 0 134.6 89.6" xml:space="preserve">
	<path class="fill-and-stroke" fill="#9B7438" stroke="#9B7438" stroke-width="0.325" stroke-miterlimit="10" d="M29.1,60.5c0-0.4-0.3-0.7-0.7-0.7h-0.9
		c0,0,0,0,0,0v1.3c0,0,0,0,0,0h0.9C28.8,61.2,29.1,60.9,29.1,60.5 M26.8,63.5C26.7,63.5,26.7,63.5,26.8,63.5l-0.1-4.3
		c0,0,0-0.1,0.1-0.1h1.6c0.8,0,1.4,0.5,1.4,1.4c0,0.8-0.6,1.4-1.4,1.4h-0.9c0,0,0,0,0,0v1.6c0,0,0,0.1-0.1,0.1H26.8z M35,60.5
		c0-0.4-0.3-0.6-0.7-0.6h-0.9c0,0,0,0,0,0V61c0,0,0,0,0,0h0.9C34.7,61.1,35,60.8,35,60.5 M35.1,63.5C35,63.5,35,63.5,35.1,63.5
		l-0.9-1.8h-0.8c0,0,0,0,0,0v1.7c0,0,0,0.1-0.1,0.1h-0.6c0,0-0.1,0-0.1-0.1v-4.2c0,0,0-0.1,0.1-0.1h1.7c0.8,0,1.4,0.5,1.4,1.3
		c0,0.6-0.3,1-0.8,1.2l0.9,1.8c0,0,0,0.1,0,0.1H35.1z M38.6,59.2C38.6,59.2,38.7,59.2,38.6,59.2l2.8-0.1c0,0,0.1,0,0.1,0.1v0.6
		c0,0,0,0.1-0.1,0.1h-2c0,0,0,0,0,0V61c0,0,0,0,0,0h1.7c0,0,0.1,0,0.1,0.1v0.6c0,0,0,0.1-0.1,0.1h-1.7c0,0,0,0,0,0v1.1c0,0,0,0,0,0
		h2c0,0,0.1,0,0.1,0.1v0.6c0,0,0,0.1-0.1,0.1h-2.7c0,0-0.1,0-0.1-0.1V59.2z M44.2,61.4c0-0.7,0-0.9,0.1-1.2c0.2-0.7,0.8-1.1,1.5-1.1
		c0.7,0,1.2,0.4,1.5,0.9c0,0,0,0.1,0,0.1l-0.5,0.3c0,0-0.1,0-0.1,0c-0.1-0.3-0.4-0.6-0.8-0.6c-0.4,0-0.7,0.2-0.8,0.6
		c-0.1,0.2-0.1,0.4-0.1,1c0,0.6,0,0.8,0.1,1c0.1,0.4,0.4,0.6,0.8,0.6c0.4,0,0.7-0.3,0.8-0.6c0,0,0-0.1,0.1,0l0.5,0.3c0,0,0,0,0,0.1
		c-0.3,0.6-0.8,0.9-1.5,0.9c-0.7,0-1.3-0.4-1.5-1.1C44.3,62.3,44.2,62,44.2,61.4 M50.1,59.2C50.1,59.2,50.1,59.2,50.1,59.2l0.7-0.1
		c0,0,0.1,0,0.1,0.1v4.2c0,0,0,0.1-0.1,0.1h-0.6c0,0-0.1,0-0.1-0.1V59.2z M56.2,62.4c0.1-0.2,0.1-0.4,0.1-1c0-0.6,0-0.8-0.1-1
		c-0.1-0.4-0.4-0.6-0.8-0.6c-0.4,0-0.7,0.2-0.8,0.6c-0.1,0.2-0.1,0.4-0.1,1c0,0.6,0,0.8,0.1,1c0.1,0.4,0.4,0.6,0.8,0.6
		C55.9,62.9,56.1,62.7,56.2,62.4 M53.9,62.6c-0.1-0.3-0.1-0.5-0.1-1.2c0-0.7,0-0.9,0.1-1.2c0.2-0.7,0.8-1.1,1.5-1.1
		c0.8,0,1.3,0.4,1.6,1.1c0.1,0.3,0.1,0.5,0.1,1.2c0,0.7,0,0.9-0.1,1.2c-0.2,0.7-0.8,1.1-1.6,1.1C54.7,63.6,54.1,63.3,53.9,62.6
		 M62.4,62v-2.8c0,0,0-0.1,0.1-0.1h0.6c0,0,0.1,0,0.1,0.1V62c0,1-0.7,1.6-1.6,1.6C60.7,63.6,60,63,60,62v-2.8c0,0,0-0.1,0.1-0.1h0.6
		c0,0,0.1,0,0.1,0.1V62c0,0.6,0.4,0.9,0.8,0.9C62.1,62.9,62.4,62.6,62.4,62 M66,63C65.9,63,65.9,63,66,63l0.4-0.6c0,0,0.1,0,0.1,0
		c0.3,0.2,0.7,0.5,1.2,0.5c0.5,0,0.8-0.3,0.8-0.6c0-0.3-0.2-0.5-0.8-0.6l-0.2,0c-0.8-0.1-1.3-0.5-1.3-1.2c0-0.8,0.6-1.3,1.5-1.3
		c0.5,0,1.1,0.2,1.4,0.4c0,0,0,0.1,0,0.1l-0.3,0.5c0,0-0.1,0-0.1,0c-0.4-0.2-0.7-0.3-1-0.3c-0.4,0-0.7,0.2-0.7,0.6
		c0,0.3,0.2,0.5,0.8,0.6l0.2,0c0.8,0.1,1.3,0.5,1.3,1.3c0,0.8-0.6,1.4-1.6,1.4C66.9,63.6,66.3,63.4,66,63 M75.6,59.2
		C75.6,59.2,75.6,59.2,75.6,59.2l0.6-0.1c0.1,0,0.1,0,0.1,0.1l1.2,2.7h0l1.2-2.7c0,0,0.1-0.1,0.1-0.1h0.6c0,0,0.1,0,0.1,0.1v4.2
		c0,0,0,0.1-0.1,0.1h-0.6c0,0-0.1,0-0.1-0.1v-2.7h0l-0.9,2.1c0,0.1-0.1,0.1-0.1,0.1h-0.4c-0.1,0-0.1,0-0.1-0.1l-0.9-2.1h0v2.7
		c0,0,0,0.1-0.1,0.1h-0.6c0,0-0.1,0-0.1-0.1V59.2z M82.5,59.2C82.5,59.2,82.5,59.2,82.5,59.2l2.8-0.1c0,0,0.1,0,0.1,0.1v0.6
		c0,0,0,0.1-0.1,0.1h-2c0,0,0,0,0,0V61c0,0,0,0,0,0H85c0,0,0.1,0,0.1,0.1v0.6c0,0,0,0.1-0.1,0.1h-1.7c0,0,0,0,0,0v1.1c0,0,0,0,0,0h2
		c0,0,0.1,0,0.1,0.1v0.6c0,0,0,0.1-0.1,0.1h-2.7c0,0-0.1,0-0.1-0.1V59.2z M89.2,63.5C89.2,63.5,89.1,63.5,89.2,63.5l-0.1-3.7
		c0,0,0,0,0,0H88c0,0-0.1,0-0.1-0.1v-0.6c0,0,0-0.1,0.1-0.1h3.1c0,0,0.1,0,0.1,0.1v0.6c0,0,0,0.1-0.1,0.1h-1.1c0,0,0,0,0,0v3.6
		c0,0,0,0.1-0.1,0.1H89.2z M95.5,62L95,60.3h0L94.4,62H95.5z M94.6,59.2C94.6,59.2,94.6,59.2,94.6,59.2l0.7-0.1c0,0,0.1,0,0.1,0.1
		l1.5,4.2c0,0,0,0.1,0,0.1h-0.6c0,0-0.1,0-0.1-0.1l-0.3-0.8h-1.6l-0.3,0.8c0,0,0,0.1-0.1,0.1h-0.6c0,0-0.1,0,0-0.1L94.6,59.2z
		 M99.5,59.2C99.5,59.2,99.5,59.2,99.5,59.2l0.7-0.1c0,0,0.1,0,0.1,0.1v3.6c0,0,0,0,0,0h2c0,0,0.1,0,0.1,0.1v0.6c0,0,0,0.1-0.1,0.1
		h-2.7c0,0-0.1,0-0.1-0.1V59.2z M104.8,63C104.8,63,104.8,63,104.8,63l0.4-0.6c0,0,0.1,0,0.1,0c0.3,0.2,0.7,0.5,1.2,0.5
		c0.5,0,0.8-0.3,0.8-0.6c0-0.3-0.2-0.5-0.8-0.6l-0.2,0c-0.8-0.1-1.3-0.5-1.3-1.2c0-0.8,0.6-1.3,1.5-1.3c0.5,0,1.1,0.2,1.4,0.4
		c0,0,0,0.1,0,0.1l-0.3,0.5c0,0-0.1,0-0.1,0c-0.4-0.2-0.7-0.3-1-0.3c-0.4,0-0.7,0.2-0.7,0.6c0,0.3,0.2,0.5,0.8,0.6l0.2,0
		c0.8,0.1,1.3,0.5,1.3,1.3c0,0.8-0.6,1.4-1.6,1.4C105.8,63.6,105.2,63.4,104.8,63"/>
	<path class="only-stroke" fill="none" stroke="#9B7438" stroke-width="1.95" stroke-miterlimit="10" d="M110.7,61.2h9.2 M14.7,61.2h9.2"/>
	<path class="only-stroke" fill="none" stroke="#9B7438" stroke-width="1.3" stroke-miterlimit="10" d="M133.9,29.6l0,29c0,1.7-0.1,2.8-0.3,3.4
		c-0.1,0.6-1.6,6.5-9.1,9.1C116.5,73.9,73,88.1,73,88.1s-4.3,2.2-11.8-0.4c-7.5-2.6-51.9-17-51.9-17s-8.7-3.2-8.7-9.4V29.4
		c0,0-0.1-5.8,8.4-8.7c8.6-2.8,52-18.9,52-18.9s5-2.6,11.9-0.2c7,2.3,51.9,18.7,51.9,18.7S133.9,23.6,133.9,29.6z"/>
	<path class="only-stroke" fill="none" stroke="#9B7438" stroke-width="2.6" stroke-miterlimit="10" d="M130.1,30.7v28.4c0,0.1,0,0.5,0,1
		c0,0.3-0.1,0.9-0.2,1.1c-0.6,1.4-1.9,4.4-8.3,6.6C113.9,70.4,72.8,84,72.8,84s-4.7,1.9-11.2-0.3c-7.1-2.4-49.2-16.4-49.2-16.4
		s-7.9-1.9-7.9-6.9V30.3c0,0,0,0,0-0.1c0-0.7,0.5-4.2,7.6-6.5C19.9,21.2,58.3,7,61.3,6c0.1,0,0.2-0.1,0.3-0.1
		c0.8-0.3,5.2-2.1,11.2-0.2c6.6,2.1,49.2,17.5,49.2,17.5S130.1,25.6,130.1,30.7z"/>
	<path class="only-stroke" fill="none" stroke="#9B7438" stroke-width="1.3" stroke-miterlimit="10" d="M69.7,39.4L69.7,39.4l1.1,0
		c3.1,0,5.7-2.2,5.7-4.9c0-2.8-2.6-5-5.7-5h-8.5c-0.3,0-0.5,0.2-0.5,0.5v9c0,0.3,0.2,0.5,0.5,0.5L69.7,39.4z M72.6,39.8
		c-0.4,0.1-0.5,0.6-0.2,0.8c1.5,1.4,2.8,3.6,4.7,9.6l0.1,0.4h-0.7l-0.1-0.2c-2.2-7.2-3.6-8.8-5.7-10.2c-0.1-0.1-0.2-0.1-0.3-0.1
		h-8.3c-0.3,0-0.5,0.2-0.5,0.5v9.7v0.3h-0.6v-0.3l0-9.6l0-0.7l0-0.3l0-10c0-0.4,0.4-0.8,0.8-0.8l8.8,0c3.5,0,6.4,2.5,6.4,5.6
		C77.1,37,75.2,39.1,72.6,39.8z M97.3,28.9h0.3v0.6h-0.3H82.9v9.9h10.4h0.3V40h-0.3H82.9v9.9h14.4h0.3v0.6h-0.3H82.6
		c-0.2,0-0.3-0.1-0.3-0.3V40v-0.6V29.2c0-0.2,0.1-0.3,0.3-0.3H97.3z M118.1,45.7l0.1-0.2h0.7l-0.3,0.5c-1.3,2.3-4.7,4.6-8.2,4.6
		c-5.3,0-9.6-4.8-9.6-10.9c0-6,4.3-10.9,9.6-10.9c3.5,0,7,2.2,8.2,4.6l0.2,0.5h-0.7l-0.1-0.2c-1.2-2.3-4.3-4.3-7.6-4.3
		c-5,0-9,4.6-9,10.2c0,5.7,4,10.2,9,10.2C113.7,49.9,116.8,47.9,118.1,45.7z"/>
	<path class="only-stroke" fill="none" stroke="#9B7438" stroke-width="2.6" stroke-miterlimit="10" d="M55,49.7v-0.2h0.4v0.2v0v0.2H55V49.7L55,49.7z
		 M37.6,43.5c0,3.6,3.2,6.6,7.3,6.6c4.1,0,7.3-3,7.3-6.6l0-13.8l0-0.3h-0.7v0.3v13.8c0,3.3-3,6-6.7,6c-3.7,0-6.7-2.7-6.7-6l0-13.8
		l0-0.3h-0.7v0.3V43.5z"/>
	<path class="fill-and-stroke" fill="#9B7438" stroke="#9B7438" stroke-width="0.39" stroke-miterlimit="10" d="M36.3,51h-3L25.5,33L17.7,51h-3.1l9.7-22.2
		c0,0,0.3-0.6,1.2-0.6s1.2,0.7,1.2,0.7L36.3,51z"/>
</svg>
