<svg version="1" xmlns="http://www.w3.org/2000/svg" width="400" height="400" viewBox="0 0 300.000000 300.000000"><path d="M78.5 66.5c-.4 1.1-2 2.9-3.7 4-2.2 1.5-4 4.4-6.9 11.5-2.2 5.2-4.6 10.8-5.3 12.5-2.8 6-5.7 12.7-22.1 50.5C9.2 217.2 2.7 231.9.3 236.2c-.2.5 4.7.8 10.9.8h11.3l4.9-12.3c2.7-6.7 5.7-14 6.7-16.2 1-2.2 9.5-22.7 18.9-45.5l20-48c1.5-3.6 3.1-7.6 3.5-8.9.4-1.2 1.1-1.9 1.5-1.5 1.2 1.3 52 122 53.7 127.6l1.5 4.8h21l-.7-4c-.4-2.2-.8-4.6-.9-5.3-.4-1.5-.6-2.2-12.4-29.9-5.5-12.8-18.2-42.7-28.2-66.3-26.5-62.7-25.5-60.6-28.7-62-1.2-.5-2.6-1.8-3.2-3-1-2-1-2-1.6 0zM258 123.4c-.1 30.8-.2 58.3-.4 60.9-.8 10.5-10.1 23.3-20.2 27.8-19.3 8.7-41.9 3.8-53.4-11.5-7.3-9.7-7.1-8.2-6.8-73.4l.3-58.2h-20.4v58.2c0 65 .2 67.1 6.5 78.7 7.9 14.6 22.6 25.4 40.4 29.7 8.1 2 23.9 1.2 32.2-1.5 11.6-3.9 22.6-11.7 30.1-21.5 4.3-5.7 9.4-17.5 10.3-24.1.3-2.8.7-30 .8-60.5.1-30.5.6-56.7 1-58.1l.7-2.5-10.5-.1-10.6-.1v56.2zM283 216.8c-1.5.5-1.3 18.2.3 18.3 1.8.1 14 .1 15.5 0 .9-.1 1.2-2.7 1.2-9.4v-9.2h-8c-4.4 0-8.4.1-9 .3z"/></svg>